<?xml version="1.0"?>
<svg xmlns="http://www.w3.org/2000/svg" id="Capa_1" enable-background="new 0 0 512 512" height="512px" viewBox="0 0 512 512" width="512px" class=""><g><g><path d="m467 0h-422c-24.813 0-45 20.187-45 45v90 332c0 24.813 20.187 45 45 45h422c24.813 0 45-20.187 45-45v-332-90c0-24.813-20.187-45-45-45zm-437 45c0-8.271 6.729-15 15-15h422c8.271 0 15 6.729 15 15v75h-452zm452 422c0 8.271-6.729 15-15 15h-422c-8.271 0-15-6.729-15-15v-317h452z" data-original="#000000" class="active-path" data-old_color="#000000" fill="#FFFFFF"/><circle cx="76" cy="75" r="15" data-original="#000000" class="active-path" data-old_color="#000000" fill="#FFFFFF"/><circle cx="136" cy="75" r="15" data-original="#000000" class="active-path" data-old_color="#000000" fill="#FFFFFF"/><circle cx="196" cy="75" r="15" data-original="#000000" class="active-path" data-old_color="#000000" fill="#FFFFFF"/><path d="m76 372h120c8.284 0 15-6.716 15-15v-20c0-26.383-13.705-49.61-34.358-62.983 8.915-9.779 14.358-22.774 14.358-37.017 0-30.327-24.673-55-55-55s-55 24.673-55 55c0 14.243 5.443 27.238 14.358 37.017-20.653 13.373-34.358 36.6-34.358 62.983v20c0 8.284 6.716 15 15 15zm35-135c0-13.785 11.215-25 25-25s25 11.215 25 25-11.215 25-25 25-25-11.215-25-25zm-20 100c0-24.813 20.187-45 45-45s45 20.187 45 45v5h-90z" data-original="#000000" class="active-path" data-old_color="#000000" fill="#FFFFFF"/><path d="m256 212h180c8.284 0 15-6.716 15-15s-6.716-15-15-15h-180c-8.284 0-15 6.716-15 15s6.716 15 15 15z" data-original="#000000" class="active-path" data-old_color="#000000" fill="#FFFFFF"/><path d="m256 272h180c8.284 0 15-6.716 15-15s-6.716-15-15-15h-180c-8.284 0-15 6.716-15 15s6.716 15 15 15z" data-original="#000000" class="active-path" data-old_color="#000000" fill="#FFFFFF"/><path d="m256 332h180c8.284 0 15-6.716 15-15s-6.716-15-15-15h-180c-8.284 0-15 6.716-15 15s6.716 15 15 15z" data-original="#000000" class="active-path" data-old_color="#000000" fill="#FFFFFF"/><path d="m436 362h-60c-8.284 0-15 6.716-15 15v60c0 8.284 6.716 15 15 15h60c8.284 0 15-6.716 15-15v-60c0-8.284-6.716-15-15-15zm-15 60h-30v-30h30z" data-original="#000000" class="active-path" data-old_color="#000000" fill="#FFFFFF"/><path d="m256 452h60c8.284 0 15-6.716 15-15v-60c0-8.284-6.716-15-15-15h-60c-8.284 0-15 6.716-15 15v60c0 8.284 6.716 15 15 15zm15-60h30v30h-30z" data-original="#000000" class="active-path" data-old_color="#000000" fill="#FFFFFF"/><path d="m76 432h120c8.284 0 15-6.716 15-15s-6.716-15-15-15h-120c-8.284 0-15 6.716-15 15s6.716 15 15 15z" data-original="#000000" class="active-path" data-old_color="#000000" fill="#FFFFFF"/></g></g> </svg>
