<?xml version="1.0"?>
<svg xmlns="http://www.w3.org/2000/svg" height="512px" viewBox="0 0 512.00007 512" width="512px"><g><path d="m316.800781 334.253906c-16.046875-9.039062-46.785156-28.652344-80.210937-62.078125-33.433594-33.433593-53.269532-64.398437-62.453125-80.597656l53.917969-54.613281-136.148438-136.964844-67.074219 66.632812c-25.472656 25.46875-32.070312 64.222657-16.425781 96.433594 23.871094 49.152344 67.921875 123.335938 142.195312 197.613282 74.277344 74.273437 148.460938 118.324218 197.613282 142.195312 11.644531 5.660156 24.144531 8.40625 36.566406 8.40625 21.929688 0 43.605469-8.570312 59.867188-24.832031l66.765624-66.996094-138.90625-139.136719zm99.601563 123.984375c-13.445313 13.429688-33.835938 16.9375-50.746094 8.726563-46.398438-22.535156-116.472656-64.164063-186.824219-134.515625-70.351562-70.351563-111.980469-140.425781-134.515625-186.824219-8.21875-16.914062-4.703125-37.316406 8.695313-50.714844l38.714843-38.460937 80.132813 80.613281-45.933594 46.527344 5.542969 12.445312c.902344 2.023438 22.6875 50.167969 76.890625 104.371094 54.238281 54.238281 101.976563 75.570312 103.980469 76.453125l12.28125 5.398437 47.414062-45.910156 82.996094 83.132813zm-47.265625-270.183593-93.960938-93.957032 93.960938-93.960937 28.230469 28.230469-44.773438 44.769531h99.28125c33.085938 0 60.003906 26.863281 60.003906 59.886719l.121094 104.769531-39.921875.050781-.121094-104.796875c0-11.03125-9.007812-19.984375-20.082031-19.984375h-101.277344l46.769532 46.765625zm0 0" data-original="#000000" class="active-path" data-old_color="#000000" fill="#FFFFFF"/></g> </svg>
