<?xml version="1.0"?>
<svg xmlns="http://www.w3.org/2000/svg" id="Capa_1" enable-background="new 0 0 512 512" height="512px" viewBox="0 0 512 512" width="512px"><g><g><g><path d="m382.535 132.534c-2.199-.732-4.448-1.499-6.691-2.298v-33.34c5.918 1.274 9.446 4.092 9.746 4.34 3.118 2.661 7.805 2.314 10.498-.787 2.709-3.119 2.376-7.842-.742-10.551-.429-.373-7.672-6.516-19.502-8.174v-2.505c0-4.131-3.348-7.479-7.479-7.479s-7.479 3.349-7.479 7.479v3.047c-1.125.233-2.265.501-3.432.832-11.091 3.146-19.272 12.2-21.351 23.627-1.837 10.101 1.667 19.807 9.145 25.331 3.963 2.927 8.893 5.609 15.637 8.441v42.406c-6.069-.392-10.195-1.747-17.022-5.953-3.517-2.167-8.125-1.073-10.291 2.444-2.167 3.517-1.072 8.124 2.445 10.291 9.697 5.975 16.31 7.742 24.867 8.187v3.338c0 4.131 3.348 7.479 7.479 7.479s7.479-3.349 7.479-7.479v-3.921c16.733-3.179 27.293-16.5 29.378-29.628 2.528-15.91-6.377-29.698-22.685-35.127zm-21.65-8.483c-2.548-1.283-4.85-2.624-6.75-4.028-3.411-2.519-3.95-7.139-3.316-10.623.795-4.371 3.863-9.648 10.066-11.701zm29.563 41.262c-1.066 6.715-6.006 13.841-14.605 16.566v-35.815c.65.22 1.293.439 1.966.663 9.273 3.087 13.997 10.034 12.639 18.586z" data-original="#000000" class="active-path" data-old_color="#000000" fill="#FFFFFF"/><path d="m268.4 243.763c26.568 26.208 62.352 41.007 99.96 41.007.202 0 .403 0 .605-.001 78.691-.331 142.116-64.281 141.784-142.984-.327-77.522-63.071-141.785-142.368-141.785-.204 0-.413 0-.616.001-43.651.184-84.823 20.519-111.602 54.742-11.182-6.959-24.107-10.676-37.583-10.606l-65.299.275c-14.769.062-27.925 9.484-32.735 23.446-.334.969-1.285 1.623-2.366 1.628-19.34.082-34.931 15.799-34.848 35.143l.225 53.42c-5.065 4.246-8.057 10.543-8.029 17.333l.071 16.661c.025 6.013 2.391 11.657 6.661 15.892 3.953 3.919 9.098 6.197 14.611 6.494 2.525 23.456 13.907 45.272 36.035 61l.132 31.458c.013 2.964-2.197 5.496-5.138 5.892h-.001c-21.893 2.935-61.893 9.332-83.815 19.204-26.139 11.77-42.951 37.899-42.831 66.566l.057 13.593c.018 4.12 3.363 7.448 7.478 7.447h.032c4.131-.018 7.465-3.38 7.448-7.511l-.057-13.593c-.095-22.766 13.256-43.516 34.013-52.864 12.131-5.463 31.235-9.876 48.465-13.067-1.017 7.174 1.64 14.291 7.3 19.106l33.744 28.717c3.976 3.385 8.88 5.094 13.798 5.094 1.894 0 3.787-.27 5.634-.779l7.045 9.808-13.434 102.54h-77.683l-.172-40.928c-.018-4.12-3.363-7.448-7.478-7.448-.011 0-.021 0-.032 0-4.131.018-7.465 3.38-7.448 7.51l.172 40.865h-19.217c-.036 0-.07 0-.106 0-13.232 0-24.231-10.662-24.288-24.189l-.108-25.668c-.018-4.12-3.363-7.447-7.478-7.447-.011 0-.021 0-.032 0-4.131.018-7.465 3.38-7.448 7.511l.108 25.668c.09 21.647 17.652 39.086 39.213 39.086h.169 294.462c21.278-.09 39.177-18.708 39.084-40.657l-.313-74.367c-.122-28.667-17.153-54.654-43.391-66.203-22.005-9.686-62.057-15.746-83.974-18.496-.001 0-.002 0-.004 0-2.944-.372-5.173-2.884-5.186-5.848l-.133-31.458c11.06-8.001 20.12-17.551 26.907-31.208zm99.427-228.803c.185-.001.368-.001.553-.001 69.42 0 127.111 55.941 127.41 126.89.298 70.423-56.453 127.665-126.888 127.962-.183.001-.359.001-.542.001-35.883 0-69.919-15.063-94.077-41.504 1.306-4.752 2.238-9.645 2.733-14.639 1.639-.102 3.238-.4 4.788-.844 21.124 25.903 53.014 41.17 86.565 41.17.155 0 .311 0 .466-.001 55.068-.232 101.009-40.456 109.674-93.481.667-4.077-2.098-7.922-6.174-8.588-4.091-.667-7.922 2.099-8.587 6.175-7.478 45.749-47.134 80.734-94.975 80.936-.136 0-.268.001-.404.001-28.733 0-56.066-12.936-74.363-34.924 2.666-3.787 4.112-8.284 4.092-13.009l-.07-16.662c-.03-6.789-3.075-13.061-8.176-17.263l-.179-42.545c-.033-7.823-1.344-15.44-3.799-22.633 17.439-28.485 48.576-46.127 82.082-46.268.141 0 .278-.001.419-.001 46.98 0 86.963 33.443 95.154 79.663.643 3.626 3.796 6.176 7.355 6.176.433 0 .873-.038 1.314-.116 4.068-.721 6.78-4.602 6.059-8.669-9.488-53.545-55.882-92.264-110.364-92.011-35.56.15-68.796 17.374-89.577 45.691-2.74-4.216-5.935-8.179-9.591-11.804-.251-.249-.513-.48-.767-.724 23.971-30.62 60.812-48.814 99.869-48.978zm-249.586 69.485c7.434-.031 14.044-4.739 16.446-11.714 2.741-7.955 10.238-13.324 18.655-13.359l65.299-.275h.242c14.825 0 28.777 5.744 39.31 16.188 5.372 5.327 9.523 11.557 12.323 18.347.086.261.185.517.3.767 2.52 6.38 3.868 13.234 3.897 20.3l.168 39.734c-4.993.949-11.554 3.095-17.103 7.916-1.276.07-3.166-.024-4.836-.218l-.137-32.702c-.073-17.155-14.052-31.061-31.198-31.061-.044 0-.089 0-.132 0l-.279.001c-4.667.02-9.293.752-13.751 2.177-13.702 4.379-28.323 4.411-41.965.177-4.471-1.388-9.14-2.076-13.775-2.061l-.279.001c-17.238.073-31.133 14.081-31.061 31.324l.123 29.158c-7.093-2.966-15.743-4.063-21.989-4.453l-.211-50.126c-.045-11.073 8.879-20.075 19.953-20.121zm39.017 284.843c-2.375 1.725-5.596 1.602-7.833-.301l-33.744-28.718c-2.88-2.45-2.248-5.641-1.985-6.561.261-.913 1.394-3.914 5.063-4.515 3.131-.473 5.995-.885 8.475-1.228l46.903 29.061zm-9.358-85.087c12.186 5.713 25.322 8.66 39.291 8.757h.051c.039 0 .077 0 .116-.001 13.969-.215 27.079-3.273 39.216-9.088l.096 22.623c.021 5.055 1.881 9.727 4.956 13.364l-44.12 27.855-44.354-27.482c3.045-3.663 4.865-8.351 4.844-13.405zm39.682 81.548 15.607 11.138-5.697 8.076-19.657.083-5.766-8.027zm-19.721 131.292 12.715-97.05 14.299-.06 13.556 97.11zm108.331-165.235c17.257 3.046 36.397 7.297 48.574 12.657 20.836 9.172 34.362 29.809 34.458 52.576l.313 74.367c.056 13.325-10.708 25.578-24.157 25.635h-19.243l-.177-41.945c-.018-4.12-3.363-7.447-7.478-7.447-.011 0-.022 0-.032 0-4.131.018-7.465 3.38-7.448 7.511l.177 41.882h-77.643l-14.341-102.722 6.96-9.866c1.793.478 3.628.731 5.463.731 4.979 0 9.939-1.752 13.935-5.211l33.5-29c5.619-4.864 8.216-12.003 7.139-19.168zm-28.585-4.349c2.484.322 5.351.71 8.486 1.156 3.672.569 4.832 3.561 5.1 4.471.27.918.929 4.104-1.93 6.579l-33.5 29.001c-2.219 1.921-5.438 2.073-7.83.367l-16.982-12.119zm-60.396-49.458c-38.455-.305-74.771-28.348-75.873-71.231-.103-4.057-3.422-7.287-7.475-7.287-.011 0-.022 0-.032 0l-5.687.024c-.012 0-.022 0-.033 0-2.006 0-3.893-.777-5.319-2.19-1.433-1.421-2.226-3.315-2.235-5.334l-.071-16.66c-.009-2.308 1.032-4.435 2.772-5.861 8.599.145 21.175 1.841 24.909 5.493 1.952 1.909 4.519 2.918 7.132 2.917 1.34 0 2.693-.265 3.98-.81 3.788-1.603 6.225-5.301 6.206-9.417l-.159-37.718c-.038-8.948 7.168-16.265 16.172-16.302l.279-.001c3.178.002 6.259.454 9.273 1.389 16.539 5.133 34.32 5.101 50.951-.215 3.004-.96 6.12-1.454 9.266-1.467l.279-.001h.07c8.918 0 16.195 7.238 16.233 16.166l.159 37.717c.007 1.694.607 5.878 6.012 8.113 2.616 1.081 17.438 4.367 22.834-.996 4.168-4.146 10.41-5.262 13.509-5.564 1.684 1.412 2.698 3.489 2.708 5.746l.07 16.661c.009 2.018-.769 3.919-2.19 5.352-1.422 1.433-3.316 2.227-5.335 2.235l-5.686.024c-4.068.018-7.376 3.283-7.446 7.35-.741 42.771-36.713 71.238-75.273 71.867z" data-original="#000000" class="active-path" data-old_color="#000000" fill="#FFFFFF"/></g></g></g> </svg>
