<?xml version="1.0"?>
<svg xmlns="http://www.w3.org/2000/svg" id="Capa_1" enable-background="new 0 0 512.003 512.003" height="512px" viewBox="0 0 512.003 512.003" width="512px"><g><g id="XMLID_822_"><g id="XMLID_1030_"><path id="XMLID_240_" d="m471.396 412.045v-102.945c0-58.999-48-106.999-106.999-106.999-5.609 0-11.118.436-16.497 1.272l31.43-30.05h23.544c26.239 0 47.586-21.348 47.586-47.587v-91.358c0-18.956-15.422-34.378-34.378-34.378h-176.888c-18.956 0-34.378 15.422-34.378 34.378v5.083h-95.077c-21.548 0-39.078 17.53-39.078 39.078v55.7c0 21.548 17.53 39.078 39.078 39.078h19.457l17.981 21.131h-1.771c-35.801 0-64.927 29.126-64.927 64.927v53.933c0 22.709 11.328 42.81 28.618 54.989v15.612h-34.344c-41.219 0-74.753 33.534-74.753 74.753v43.338c0 5.522 4.478 10 10 10h309.284c5.522 0 10-4.478 10-10s-4.478-10-10-10h-82.715v-8.237c0-35.119 28.571-63.69 63.689-63.69h27.684c3.782 16.578 18.635 28.989 36.341 28.989 17.707 0 32.56-12.412 36.342-28.989h27.683c35.119 0 63.69 28.571 63.69 63.69v8.237h-82.716c-5.522 0-10 4.478-10 10s4.478 10 10 10h92.718c5.522 0 10-4.478 10-10v-18.237c0-30.399-16.295-57.058-40.604-71.718zm-246.58-377.667c0-7.928 6.45-14.378 14.378-14.378h176.888c7.928 0 14.378 6.45 14.378 14.378v91.358c0 15.212-12.375 27.587-27.586 27.587h-27.555c-2.574 0-5.05.993-6.91 2.771l-24.964 23.867v-16.639c0-5.522-4.478-10-10-10h-63.652c3.175-5.648 4.996-12.156 4.996-19.084v-55.7c0-21.548-17.531-39.078-39.079-39.078h-10.894zm-83.382 122.459c-1.9-2.233-4.685-3.52-7.616-3.52h-24.078c-10.52 0-19.078-8.559-19.078-19.078v-55.7c0-10.52 8.559-19.078 19.078-19.078h125.97c10.521 0 19.079 8.559 19.079 19.078v55.7c0 10.52-8.559 19.078-19.079 19.078h-67.724c-5.522 0-10 4.478-10 10v12.972zm-40.955 102.538c0-24.772 20.154-44.927 44.927-44.927h73.094v15.733c0 24.772-20.154 44.927-44.927 44.927h-73.094zm0 53.933v-18.199h73.094c7.489 0 14.679-1.29 21.378-3.633v16.366c0 30.538-19.865 52.703-47.235 52.703-26.046-.001-47.237-21.191-47.237-47.237zm65.854 64.612v17.778c0 10.266-8.352 18.617-18.617 18.617s-18.618-8.352-18.618-18.617v-17.797c5.917 1.708 12.159 2.643 18.618 2.643 6.513 0 12.744-.922 18.617-2.624zm50.236 105.843v8.237h-196.569v-33.338c0-30.19 24.562-54.753 54.753-54.753h35.232c3.775 17.361 19.255 30.406 37.731 30.406s33.955-13.045 37.73-30.406h35.232c11.818 0 23.17 3.814 32.502 10.703-22.083 15.083-36.611 40.449-36.611 69.151zm40.828-90.189c-11.083-6.255-23.69-9.665-36.72-9.665h-34.345v-15.819c17.533-12.85 28.618-34.592 28.618-60.25v-27.666c14.375-11.919 23.549-29.904 23.549-49.994v-25.733c0-5.522-4.478-10-10-10h-50.514v-21.131l145.459.006v30.034c0 2.242.769 4.347 2.074 6.056-39.834 15.589-68.122 54.395-68.122 99.686v84.476zm124.171 18.203c0 9.53-7.754 17.284-17.284 17.284s-17.283-7.754-17.283-17.284v-17.525c5.539 1.552 11.368 2.4 17.396 2.4 5.946 0 11.7-.824 17.172-2.336v17.461zm-17.172-35.125c-24.574 0-44.567-19.993-44.567-44.568v-20.607h23.316c11.273 0 21.595-4.123 29.56-10.929 7.573 6.917 17.559 10.929 28.128 10.929h8.131v20.607c.001 24.575-19.992 44.568-44.568 44.568zm87 26.684c-7.339-2.11-15.078-3.264-23.086-3.264h-26.741v-15.242c16.556-11.702 27.396-30.976 27.396-52.746v-30.607c0-5.522-4.478-10-10-10h-18.131c-6.183 0-11.979-2.64-16.042-7.1 2.517-5.652 3.928-11.901 3.928-18.476 0-5.522-4.478-10-10-10s-10 4.478-10 10c0 14.103-11.473 25.576-25.575 25.576h-33.316c-5.522 0-10 4.478-10 10v30.607c0 21.672 10.743 40.869 27.172 52.586v15.402h-26.742c-7.926 0-15.589 1.132-22.861 3.2v-94.172c0-47.972 39.027-86.999 86.999-86.999s86.999 39.027 86.999 86.999z" data-original="#000000" class="active-path" data-old_color="#000000" fill="#FFFFFF"/><path id="XMLID_1284_" d="m364.29 492c-2.641 0-5.221 1.069-7.08 2.93-1.86 1.86-2.931 4.43-2.931 7.07 0 2.63 1.07 5.21 2.931 7.069 1.859 1.86 4.439 2.931 7.08 2.931 2.63 0 5.2-1.07 7.06-2.931 1.87-1.859 2.94-4.439 2.94-7.069s-1.07-5.21-2.94-7.07c-1.86-1.861-4.43-2.93-7.06-2.93z" data-original="#000000" class="active-path" data-old_color="#000000" fill="#FFFFFF"/></g></g></g> </svg>
