<svg height='300px' width='300px'  fill="#000" xmlns="http://www.w3.org/2000/svg" xmlns:xlink="http://www.w3.org/1999/xlink" version="1.1" x="0px" y="0px" viewBox="0 0 64 64" enable-background="new 0 0 64 64" xml:space="preserve"><path d="M16.9,60H4V47.1c0-0.6-0.4-1-1-1s-1,0.4-1,1V61c0,0.6,0.4,1,1,1h13.9c0.6,0,1-0.4,1-1S17.4,60,16.9,60z"></path><path d="M61,46.1c-0.6,0-1,0.4-1,1V60H47.1c-0.6,0-1,0.4-1,1s0.4,1,1,1H61c0.6,0,1-0.4,1-1V47.1C62,46.6,61.6,46.1,61,46.1z"></path><path d="M61,2H47.1c-0.6,0-1,0.4-1,1s0.4,1,1,1H60v12.9c0,0.6,0.4,1,1,1s1-0.4,1-1V3C62,2.4,61.6,2,61,2z"></path><path d="M3,17.9c0.6,0,1-0.4,1-1V4h12.9c0.6,0,1-0.4,1-1s-0.4-1-1-1H3C2.4,2,2,2.5,2,3v13.9C2,17.4,2.4,17.9,3,17.9z"></path><path d="M44,31H33V20c0-0.6-0.4-1-1-1s-1,0.4-1,1v11H20c-0.6,0-1,0.4-1,1s0.4,1,1,1h11v11c0,0.6,0.4,1,1,1s1-0.4,1-1V33h11  c0.6,0,1-0.4,1-1S44.6,31,44,31z"></path></svg>