<?xml version="1.0" encoding="UTF-8"?>
<svg xmlns="http://www.w3.org/2000/svg" xmlns:xlink="http://www.w3.org/1999/xlink" width="477px" height="478px" viewBox="-1 -3 477 478"> <!-- Generated by Pixelmator Pro 1.2.1 --> <g id="new-group"> <path id="path" d="M374.456 293.7 C364.756 283.6 353.056 278.2 340.656 278.2 328.356 278.2 316.556 283.5 306.456 293.6 L274.856 325.1 C272.256 323.7 269.656 322.4 267.156 321.1 263.556 319.3 260.156 317.6 257.256 315.8 227.656 297 200.756 272.5 174.956 240.8 162.456 225 154.056 211.7 147.956 198.2 156.156 190.7 163.756 182.9 171.156 175.4 173.956 172.6 176.756 169.7 179.556 166.9 200.556 145.9 200.556 118.7 179.556 97.7 L152.256 70.4 C149.156 67.3 145.956 64.1 142.956 60.9 136.956 54.7 130.656 48.3 124.156 42.3 114.456 32.7 102.856 27.6 90.656 27.6 78.456 27.6 66.656 32.7 56.656 42.3 56.556 42.4 56.556 42.4 56.456 42.5 L22.456 76.8 C9.656 89.6 2.356 105.2 0.756 123.3 -1.644 152.5 6.956 179.7 13.556 197.5 29.756 241.2 53.956 281.7 90.056 325.1 133.856 377.4 186.556 418.7 246.756 447.8 269.756 458.7 300.456 471.6 334.756 473.8 336.856 473.9 339.056 474 341.056 474 364.156 474 383.556 465.7 398.756 449.2 398.856 449 399.056 448.9 399.156 448.7 404.356 442.4 410.356 436.7 416.656 430.6 420.956 426.5 425.356 422.2 429.656 417.7 439.556 407.4 444.756 395.4 444.756 383.1 444.756 370.7 439.456 358.8 429.356 348.8 L374.456 293.7 Z M410.256 399 C410.156 399 410.156 399.1 410.256 399 406.356 403.2 402.356 407 398.056 411.2 391.556 417.4 384.956 423.9 378.756 431.2 368.656 442 356.756 447.1 341.156 447.1 339.656 447.1 338.056 447.1 336.556 447 306.856 445.1 279.256 433.5 258.556 423.6 201.956 396.2 152.256 357.3 110.956 308 76.856 266.9 54.056 228.9 38.956 188.1 29.656 163.2 26.256 143.8 27.756 125.5 28.756 113.8 33.256 104.1 41.556 95.8 L75.656 61.7 C80.556 57.1 85.756 54.6 90.856 54.6 97.156 54.6 102.256 58.4 105.456 61.6 105.556 61.7 105.656 61.8 105.756 61.9 111.856 67.6 117.656 73.5 123.756 79.8 126.856 83 130.056 86.2 133.256 89.5 L160.556 116.8 C171.156 127.4 171.156 137.2 160.556 147.8 157.656 150.7 154.856 153.6 151.956 156.4 143.556 165 135.556 173 126.856 180.8 126.656 181 126.456 181.1 126.356 181.3 117.756 189.9 119.356 198.3 121.156 204 121.256 204.3 121.356 204.6 121.456 204.9 128.556 222.1 138.556 238.3 153.756 257.6 L153.856 257.7 C181.456 291.7 210.556 318.2 242.656 338.5 246.756 341.1 250.956 343.2 254.956 345.2 258.556 347 261.956 348.7 264.856 350.5 265.256 350.7 265.656 351 266.056 351.2 269.456 352.9 272.656 353.7 275.956 353.7 284.256 353.7 289.456 348.5 291.156 346.8 L325.356 312.6 C328.756 309.2 334.156 305.1 340.456 305.1 346.656 305.1 351.756 309 354.856 312.4 354.956 312.5 354.956 312.5 355.056 312.6 L410.156 367.7 C420.456 377.9 420.456 388.4 410.256 399 Z" fill="#d0bc89" fill-opacity="1" stroke="none"/> <path id="path-1" d="M256.056 112.9 C282.256 117.3 306.056 129.7 325.056 148.7 344.056 167.7 356.356 191.5 360.856 217.7 361.956 224.3 367.656 228.9 374.156 228.9 374.956 228.9 375.656 228.8 376.456 228.7 383.856 227.5 388.756 220.5 387.556 213.1 382.156 181.4 367.156 152.5 344.256 129.6 321.356 106.7 292.456 91.7 260.756 86.3 253.356 85.1 246.456 90 245.156 97.3 243.856 104.6 248.656 111.7 256.056 112.9 Z" fill="#d0bc89" fill-opacity="1" stroke="none"/> <path id="path-2" d="M473.256 209.2 C464.356 157 439.756 109.5 401.956 71.7 364.156 33.9 316.656 9.3 264.456 0.4 257.156 -0.9 250.256 4.1 248.956 11.4 247.756 18.8 252.656 25.7 260.056 27 306.656 34.9 349.156 57 382.956 90.7 416.756 124.5 438.756 167 446.656 213.6 447.756 220.2 453.456 224.8 459.956 224.8 460.756 224.8 461.456 224.7 462.256 224.6 469.556 223.5 474.556 216.5 473.256 209.2 Z" fill="#d0bc89" fill-opacity="1" stroke="none"/> </g> </svg>