<?xml version="1.0"?>
<svg xmlns="http://www.w3.org/2000/svg" viewBox="0 0 64 64" width="512px" height="512px"><g><g id="Life_Insurance-2" data-name="Life Insurance"><rect x="19" y="22" width="4" height="2" data-original="#000000" class="active-path" data-old_color="#000000" fill="#FFFFFF"/><rect x="29" y="22" width="4" height="2" data-original="#000000" class="active-path" data-old_color="#000000" fill="#FFFFFF"/><path d="M26,32c-1.936,0-3-.751-3-1H21c0,1.71,2.149,3,5,3s5-1.29,5-3H29C29,31.249,27.936,32,26,32Z" data-original="#000000" class="active-path" data-old_color="#000000" fill="#FFFFFF"/><rect x="31" y="51" width="6" height="2" data-original="#000000" class="active-path" data-old_color="#000000" fill="#FFFFFF"/><rect x="15" y="51" width="6" height="2" data-original="#000000" class="active-path" data-old_color="#000000" fill="#FFFFFF"/><path d="M46.878,43.465l-1.414,1.414,2.829,2.828a1,1,0,0,0,1.414,0l5.657-5.657L53.95,40.636,49,45.586Z" data-original="#000000" class="active-path" data-old_color="#000000" fill="#FFFFFF"/><path d="M61.385,35.077l-12-5a1,1,0,0,0-.77,0l-5.3,2.21L43,31.736V19A17,17,0,0,0,9,19V31.734L5.132,38.5A1,1,0,0,0,6,40H21v.188L7.555,43.021A7.024,7.024,0,0,0,2,49.87V61a1,1,0,0,0,1,1H49a1,1,0,0,0,.707-.293l9.071-9.071A10.926,10.926,0,0,0,62,44.857V36A1,1,0,0,0,61.385,35.077ZM46.586,60H42V55.414ZM40,60H27V48h2a3,3,0,0,0,3-3V42.442l4,.839v1.576a10.926,10.926,0,0,0,3.222,7.779l.778.778ZM22,42.022l.206-.043A1,1,0,0,0,23,41V38.637a12.578,12.578,0,0,0,6,0V41a1,1,0,0,0,.794.979l.206.043V45a1,1,0,0,1-1,1H23a1,1,0,0,1-1-1Zm14-.784-5-1.05V40h5ZM26,37A11.013,11.013,0,0,1,15,26V19.748L30.815,15.1,37,19.515V26A11.013,11.013,0,0,1,26,37Zm10.615-1.923A1,1,0,0,0,36,36v2H31v0a13.027,13.027,0,0,0,7.843-10.082A4.946,4.946,0,0,0,41,26.974V32a1.007,1.007,0,0,0,.13.494l.323.568ZM39,20.183A2.95,2.95,0,0,1,41,23a2.987,2.987,0,0,1-2,2.81ZM26,4A14.98,14.98,0,0,1,41,19v.025a4.962,4.962,0,0,0-2.629-.989l-6.79-4.849a1,1,0,0,0-.863-.146l-16.932,4.98a4.967,4.967,0,0,0-2.786,1V19A15.017,15.017,0,0,1,26,4ZM11,23a3.01,3.01,0,0,1,.872-2.118,3.063,3.063,0,0,1,1.128-.7v5.633A3,3,0,0,1,11,23ZM7.723,38l3.145-5.5A.993.993,0,0,0,11,32V26.968a5.006,5.006,0,0,0,2.157.944A13.026,13.026,0,0,0,21,38v0ZM4,49.87a5.014,5.014,0,0,1,3.966-4.891L20,42.443V45a3,3,0,0,0,3,3h2V60H12V53H10v7H4Zm56-5.013a8.943,8.943,0,0,1-2.636,6.365L49,59.586l-8.364-8.364A8.943,8.943,0,0,1,38,44.857v-8.19l11-4.584,11,4.584Z" data-original="#000000" class="active-path" data-old_color="#000000" fill="#FFFFFF"/><path d="M48.615,33.327l-9,3.75A1,1,0,0,0,39,38v6.857a7.955,7.955,0,0,0,2.342,5.658h0l6.95,6.95a1,1,0,0,0,1.414,0l6.951-6.95A7.955,7.955,0,0,0,59,44.857V38a1,1,0,0,0-.615-.923l-9-3.75A1,1,0,0,0,48.615,33.327ZM57,38.667v6.19A5.965,5.965,0,0,1,55.243,49.1L49,55.344,42.757,49.1A5.965,5.965,0,0,1,41,44.857v-6.19l8-3.334Z" data-original="#000000" class="active-path" data-old_color="#000000" fill="#FFFFFF"/></g></g> </svg>
